HIERARCHY
ROOT Hips
{
	OFFSET 0.000000 0.000000 0.000000 
	CHANNELS 6 Xposition Yposition Zposition Zrotation Yrotation Xrotation
	JOINT LeftUpLeg
	{
		OFFSET 1.363060 -1.794630 0.839290 
		CHANNELS 3 Zrotation Yrotation Xrotation
		JOINT LeftLeg
		{
			OFFSET 2.448110 -6.726130 0.000000 
			CHANNELS 3 Zrotation Yrotation Xrotation
			JOINT LeftFoot
			{
				OFFSET 2.562200 -7.039590 0.000000 
				CHANNELS 3 Zrotation Yrotation Xrotation
				JOINT LeftToeBase
				{
					OFFSET 0.157640 -0.433110 2.322550 
					CHANNELS 3 Zrotation Yrotation Xrotation
					End Site
					{
						OFFSET 0.000000 0.000000 0.000000 
					}
				}
			}
		}
	}
	JOINT RightUpLeg
	{
		OFFSET -1.305520 -1.794630 0.839290 
		CHANNELS 3 Zrotation Yrotation Xrotation
		JOINT RightLeg
		{
			OFFSET -2.542530 -6.985550 0.000000 
			CHANNELS 3 Zrotation Yrotation Xrotation
			JOINT RightFoot
			{
				OFFSET -2.568260 -7.056230 0.000000 
				CHANNELS 3 Zrotation Yrotation Xrotation
				JOINT RightToeBase
				{
					OFFSET -0.164730 -0.452590 2.363150 
					CHANNELS 3 Zrotation Yrotation Xrotation
					End Site
					{
						OFFSET 0.000000 0.000000 0.000000 
					}
				}
			}
		}
	}
	JOINT Spine
	{
		OFFSET 0.028270 2.035590 -0.193380 
		CHANNELS 3 Zrotation Yrotation Xrotation
		JOINT Spine1
		{
			OFFSET 0.056720 2.048850 -0.042750 
			CHANNELS 3 Zrotation Yrotation Xrotation
			JOINT Neck1
			{
				OFFSET -0.054170 1.746240 0.172020 
				CHANNELS 3 Zrotation Yrotation Xrotation
				JOINT Head
				{
					OFFSET 0.104070 1.761360 -0.123970 
					CHANNELS 3 Zrotation Yrotation Xrotation
					End Site
					{
						OFFSET 0.000000 0.000000 0.000000 
					}
				}
			}
			JOINT LeftArm
			{
				OFFSET 3.362410 1.200890 -0.311210 
				CHANNELS 3 Zrotation Yrotation Xrotation
				JOINT LeftForeArm
				{
					OFFSET 4.983000 -0.000000 -0.000000 
					CHANNELS 3 Zrotation Yrotation Xrotation
					JOINT LeftHand
					{
						OFFSET 3.483560 -0.000000 -0.000000 
						CHANNELS 3 Zrotation Yrotation Xrotation
						JOINT LeftHandIndex1
						{
							OFFSET 0.715260 -0.000000 -0.000000 
							CHANNELS 3 Zrotation Yrotation Xrotation
							End Site
							{
								OFFSET 0.000000 0.000000 0.000000 
							}
						}
					}
				}
			}
			JOINT RightArm
			{
				OFFSET -3.136600 1.374050 -0.404650 
				CHANNELS 3 Zrotation Yrotation Xrotation
				JOINT RightForeArm
				{
					OFFSET -5.241900 -0.000000 -0.000000 
					CHANNELS 3 Zrotation Yrotation Xrotation
					JOINT RightHand
					{
						OFFSET -3.444170 -0.000000 -0.000000 
						CHANNELS 3 Zrotation Yrotation Xrotation
						JOINT RightHandIndex1
						{
							OFFSET -0.622530 -0.000000 -0.000000 
							CHANNELS 3 Zrotation Yrotation Xrotation
							End Site
							{
								OFFSET 0.000000 0.000000 0.000000 
							}
						}
					}
				}
			}
		}
	}
}
MOTION
Frames: 6
Frame Time: 0.041667
13.627177 18.179471 3.323370 -7.087102 17.038814 3.516130 0.029264 -7.286350 -29.668146 -0.089128 8.252951 21.733543 0.743764 0.798242 5.471323 0.862300 -5.921400 -16.556600 28.299047 -7.355368 9.563982 0.784163 -0.292250 0.867076 0.505556 -4.658301 2.210624 -0.149800 2.494000 -6.873000 0.339489 5.782203 -2.727214 0.369418 3.537380 -0.516226 12.722986 -22.114328 9.138821 6.686800 -11.082000 8.378900 -78.325008 10.250951 -9.242227 7.890270 -19.247024 -1.533191 0.782630 -2.033628 19.412136 -7.125000 0.000000 0.000000 87.144318 -5.847559 1.707660 -12.121150 21.725338 -2.630966 0.088459 -0.322655 -11.338298 7.125000 0.000000 0.000000 
13.667804 18.172938 3.478836 -7.200981 16.715048 3.611987 0.374096 -7.835931 -29.897918 -0.146640 8.128593 21.302224 0.646262 1.109283 4.813481 0.819100 -5.774900 -16.132700 28.362204 -7.203761 10.005587 0.782219 -0.284907 0.864316 0.488449 -4.590666 2.420272 -0.185100 2.770900 -7.641600 0.356183 5.845120 -2.755107 0.445872 3.576963 -0.568078 12.442688 -22.037296 9.463099 6.611200 -11.073100 8.502300 -78.882520 10.278737 -11.643453 7.710131 -18.846871 -1.469134 0.720685 -2.015638 21.801022 -7.125000 0.000000 0.000000 87.363061 -5.766557 1.943637 -12.011290 21.569120 -2.591293 0.084222 -0.342679 -9.127237 7.125000 0.000000 0.000000 
13.710371 18.160892 3.639916 -7.200368 16.252186 3.712730 0.642498 -8.398852 -29.931258 -0.188255 8.045740 20.989178 0.463271 1.686759 4.055181 0.965700 -6.256900 -17.531600 28.264168 -6.951687 10.559006 0.781196 -0.279214 0.862106 0.473303 -4.531726 2.600908 -0.192300 2.823900 -7.788900 0.368390 5.783541 -2.766006 0.548622 3.549554 -0.612976 12.252844 -21.707151 9.414839 6.580500 -10.929900 8.335700 -79.326317 10.235102 -14.239459 7.536408 -18.464984 -1.419204 0.688511 -1.987079 23.898837 -7.125000 0.000000 0.000000 87.586916 -5.605750 2.710893 -11.963288 21.487344 -2.569145 0.087677 -0.358974 -7.548793 7.125000 0.000000 0.000000 
13.752325 18.147316 3.804773 -7.458512 15.827970 3.750423 0.948990 -8.345763 -30.119308 -0.205568 7.982424 20.783132 0.521953 1.504040 3.680167 1.044300 -6.498800 -18.238800 28.486030 -6.751333 11.201685 0.778400 -0.273577 0.855937 0.458704 -4.473382 2.755894 -0.192600 2.826100 -7.794900 0.424323 5.690279 -2.729908 0.762675 3.509697 -0.375319 12.046855 -21.494983 9.308695 6.516500 -10.830800 8.221300 -79.764328 10.155402 -15.102122 7.469248 -18.318279 -1.380230 0.702260 -1.987117 24.399620 -7.125000 0.000000 0.000000 87.717150 -4.906869 2.784750 -11.702464 21.113746 -2.476914 0.088627 -0.372034 -5.969565 7.125000 0.000000 0.000000 
13.800506 18.132821 3.966057 -7.490543 15.544440 3.777177 1.027743 -8.534550 -30.159256 -0.219051 7.961815 20.695451 0.507053 1.547300 3.464251 0.928300 -6.137900 -17.185000 28.425024 -6.732008 11.877939 0.772781 -0.268770 0.855889 0.430000 -4.343210 2.907575 -0.250800 3.222500 -8.898800 0.458260 5.689511 -2.669487 0.994436 3.513989 -0.035873 11.888703 -21.495841 9.333092 6.457300 -10.831900 8.284000 -80.210478 10.030152 -15.183779 7.410041 -18.196184 -1.330232 0.712723 -1.999151 24.493831 -7.125000 0.000000 0.000000 87.740660 -4.302758 2.941237 -11.616219 20.983467 -2.443874 0.097976 -0.371493 -5.304721 7.125000 0.000000 0.000000 
13.853179 18.114549 4.119787 -7.155047 15.302278 3.827408 0.528754 -8.352824 -30.208390 -0.247667 7.944259 20.657003 0.487780 1.592231 3.577047 0.898600 -6.041400 -16.904600 27.920976 -6.792190 12.555438 0.766439 -0.265136 0.861460 0.412001 -4.279783 3.160344 -0.444600 4.278400 -11.861300 0.407859 5.748772 -2.663632 0.909934 3.545275 -0.109739 11.653859 -21.460551 9.267440 6.344800 -10.822200 8.168100 -80.059107 10.917611 -11.985711 7.673744 -18.828274 -1.461542 0.795850 -1.993191 21.583732 -7.125000 0.000000 0.000000 87.993388 -4.043247 3.301113 -11.637827 20.991789 -2.447624 0.107112 -0.373419 -4.973370 7.125000 0.000000 0.000000 
